<mxfile host="app.diagrams.net" modified="2022-05-19T13:26:19.169Z" agent="5.0 (Windows NT 10.0; Win64; x64) AppleWebKit/537.36 (KHTML, like Gecko) Chrome/99.0.4844.84 Safari/537.36 OPR/85.0.4341.79" etag="xPQzPLUQ5EJrXd6e-szd" version="18.0.3" type="github">
  <diagram name="Page-1" id="efa7a0a1-bf9b-a30e-e6df-94a7791c09e9">
    <mxGraphModel dx="292" dy="548" grid="1" gridSize="10" guides="1" tooltips="1" connect="1" arrows="1" fold="1" page="1" pageScale="1" pageWidth="826" pageHeight="1169" background="none" math="0" shadow="0">
      <root>
        <mxCell id="0" />
        <mxCell id="1" parent="0" />
        <mxCell id="22" value="&lt;p style=&quot;margin: 0px; margin-top: 4px; text-align: center; text-decoration: underline;&quot;&gt;&lt;strong&gt;Root&lt;/strong&gt;&lt;/p&gt;&lt;hr&gt;&lt;p style=&quot;margin: 0px; margin-left: 8px;&quot;&gt;Create&lt;/p&gt;&lt;p style=&quot;margin: 0px; margin-left: 8px;&quot;&gt;Read&lt;/p&gt;&lt;p style=&quot;margin: 0px; margin-left: 8px;&quot;&gt;Update&lt;/p&gt;&lt;p style=&quot;margin: 0px; margin-left: 8px;&quot;&gt;Delete&lt;/p&gt;" style="verticalAlign=top;align=left;overflow=fill;fontSize=12;fontFamily=Helvetica;html=1;strokeColor=#003366;shadow=1;fillColor=#D4E1F5;fontColor=#003366" parent="1" vertex="1">
          <mxGeometry x="950" y="410" width="160" height="100" as="geometry" />
        </mxCell>
        <mxCell id="23" value="&lt;p style=&quot;margin: 0px; margin-top: 4px; text-align: center; text-decoration: underline;&quot;&gt;&lt;strong&gt;Banners&lt;/strong&gt;&lt;/p&gt;&lt;hr&gt;&lt;p style=&quot;margin: 0px; margin-left: 8px;&quot;&gt;IdBanner&lt;/p&gt;&lt;p style=&quot;margin: 0px; margin-left: 8px;&quot;&gt;name&lt;/p&gt;&lt;p style=&quot;margin: 0px; margin-left: 8px;&quot;&gt;price&lt;/p&gt;&lt;p style=&quot;margin: 0px; margin-left: 8px;&quot;&gt;text&lt;/p&gt;" style="verticalAlign=top;align=left;overflow=fill;fontSize=12;fontFamily=Helvetica;html=1;strokeColor=#003366;shadow=1;fillColor=#D4E1F5;fontColor=#003366" parent="1" vertex="1">
          <mxGeometry x="870" y="110" width="160" height="110" as="geometry" />
        </mxCell>
        <mxCell id="35" value="&lt;p style=&quot;margin: 0px; margin-top: 4px; text-align: center; text-decoration: underline;&quot;&gt;&lt;strong&gt;Categories&lt;/strong&gt;&lt;/p&gt;&lt;hr&gt;&lt;p style=&quot;margin: 0px; margin-left: 8px;&quot;&gt;RequestID&lt;/p&gt;&lt;p style=&quot;margin: 0px; margin-left: 8px;&quot;&gt;Name&lt;/p&gt;&lt;p style=&quot;margin: 0px; margin-left: 8px;&quot;&gt;&lt;br&gt;&lt;/p&gt;" style="verticalAlign=top;align=left;overflow=fill;fontSize=12;fontFamily=Helvetica;html=1;strokeColor=#003366;shadow=1;fillColor=#D4E1F5;fontColor=#003366" parent="1" vertex="1">
          <mxGeometry x="1200" y="100" width="160" height="110" as="geometry" />
        </mxCell>
        <mxCell id="45" value="" style="endArrow=open;endSize=12;startArrow=diamondThin;startSize=14;startFill=0;edgeStyle=orthogonalEdgeStyle;rounded=0" parent="1" source="23" target="22" edge="1">
          <mxGeometry x="519.3599999999999" y="180" as="geometry">
            <mxPoint x="519.3599999999999" y="180" as="sourcePoint" />
            <mxPoint x="679.3599999999999" y="180" as="targetPoint" />
          </mxGeometry>
        </mxCell>
        <mxCell id="46" value="0..n" style="resizable=0;align=left;verticalAlign=top;labelBackgroundColor=#ffffff;fontSize=10;strokeColor=#003366;shadow=1;fillColor=#D4E1F5;fontColor=#003366" parent="45" connectable="0" vertex="1">
          <mxGeometry x="-1" relative="1" as="geometry">
            <mxPoint x="8.919999999999618" as="offset" />
          </mxGeometry>
        </mxCell>
        <mxCell id="84" value="" style="endArrow=open;endSize=12;startArrow=diamondThin;startSize=14;startFill=0;edgeStyle=orthogonalEdgeStyle;exitX=0.5;exitY=1;exitDx=0;exitDy=0;entryX=1.009;entryY=0.287;entryDx=0;entryDy=0;entryPerimeter=0;" parent="1" source="35" target="22" edge="1">
          <mxGeometry x="1389.36" y="130" as="geometry">
            <mxPoint x="1170" y="520" as="sourcePoint" />
            <mxPoint x="1549.36" y="130" as="targetPoint" />
            <Array as="points">
              <mxPoint x="1280" y="320" />
              <mxPoint x="1250" y="320" />
              <mxPoint x="1250" y="439" />
            </Array>
          </mxGeometry>
        </mxCell>
        <mxCell id="85" value="0..n" style="resizable=0;align=left;verticalAlign=top;labelBackgroundColor=#ffffff;fontSize=10;strokeColor=#003366;shadow=1;fillColor=#D4E1F5;fontColor=#003366" parent="84" connectable="0" vertex="1">
          <mxGeometry x="-1" relative="1" as="geometry">
            <mxPoint x="-30" as="offset" />
          </mxGeometry>
        </mxCell>
        <mxCell id="86" value="1" style="resizable=0;align=right;verticalAlign=top;labelBackgroundColor=#ffffff;fontSize=10;strokeColor=#003366;shadow=1;fillColor=#D4E1F5;fontColor=#003366" parent="84" connectable="0" vertex="1">
          <mxGeometry x="1" relative="1" as="geometry">
            <mxPoint x="20" y="2.7284841053187846e-13" as="offset" />
          </mxGeometry>
        </mxCell>
        <mxCell id="NhdNOb5aXkDNTFYbiQFU-117" value="&lt;p style=&quot;margin: 0px; margin-top: 4px; text-align: center; text-decoration: underline;&quot;&gt;&lt;strong&gt;Logs&lt;/strong&gt;&lt;/p&gt;&lt;hr&gt;&lt;p style=&quot;margin: 0px; margin-left: 8px;&quot;&gt;IdUser&lt;/p&gt;&lt;p style=&quot;margin: 0px; margin-left: 8px;&quot;&gt;IP&lt;/p&gt;&lt;p style=&quot;margin: 0px; margin-left: 8px;&quot;&gt;IDBanner&lt;/p&gt;&lt;p style=&quot;margin: 0px; margin-left: 8px;&quot;&gt;Data&lt;/p&gt;" style="verticalAlign=top;align=left;overflow=fill;fontSize=12;fontFamily=Helvetica;html=1;strokeColor=#003366;shadow=1;fillColor=#D4E1F5;fontColor=#003366" parent="1" vertex="1">
          <mxGeometry x="1440.0000000000005" y="105.00000000000058" width="160" height="100" as="geometry" />
        </mxCell>
        <mxCell id="NhdNOb5aXkDNTFYbiQFU-118" value="" style="endArrow=open;endSize=12;startArrow=diamondThin;startSize=14;startFill=0;edgeStyle=orthogonalEdgeStyle;exitX=0.5;exitY=1;exitDx=0;exitDy=0;entryX=1.018;entryY=0.869;entryDx=0;entryDy=0;entryPerimeter=0;" parent="1" target="22" edge="1">
          <mxGeometry x="1629.36" y="40" as="geometry">
            <mxPoint x="1520" y="200.0000000000001" as="sourcePoint" />
            <mxPoint x="1350" y="440" as="targetPoint" />
            <Array as="points">
              <mxPoint x="1520" y="497" />
            </Array>
          </mxGeometry>
        </mxCell>
        <mxCell id="NhdNOb5aXkDNTFYbiQFU-119" value="0..n" style="resizable=0;align=left;verticalAlign=top;labelBackgroundColor=#ffffff;fontSize=10;strokeColor=#003366;shadow=1;fillColor=#D4E1F5;fontColor=#003366" parent="NhdNOb5aXkDNTFYbiQFU-118" connectable="0" vertex="1">
          <mxGeometry x="-1" relative="1" as="geometry">
            <mxPoint x="-30" as="offset" />
          </mxGeometry>
        </mxCell>
        <mxCell id="NhdNOb5aXkDNTFYbiQFU-120" value="1" style="resizable=0;align=right;verticalAlign=top;labelBackgroundColor=#ffffff;fontSize=10;strokeColor=#003366;shadow=1;fillColor=#D4E1F5;fontColor=#003366" parent="NhdNOb5aXkDNTFYbiQFU-118" connectable="0" vertex="1">
          <mxGeometry x="1" relative="1" as="geometry">
            <mxPoint x="20" y="2.7284841053187846e-13" as="offset" />
          </mxGeometry>
        </mxCell>
        <mxCell id="NhdNOb5aXkDNTFYbiQFU-134" value="" style="edgeStyle=orthogonalEdgeStyle;rounded=0;orthogonalLoop=1;jettySize=auto;html=0;" parent="1" source="NhdNOb5aXkDNTFYbiQFU-133" target="35" edge="1">
          <mxGeometry relative="1" as="geometry">
            <Array as="points">
              <mxPoint x="1180" y="170" />
              <mxPoint x="1180" y="140" />
            </Array>
          </mxGeometry>
        </mxCell>
        <mxCell id="NhdNOb5aXkDNTFYbiQFU-135" value="" style="edgeStyle=orthogonalEdgeStyle;rounded=0;orthogonalLoop=1;jettySize=auto;html=0;" parent="1" source="NhdNOb5aXkDNTFYbiQFU-133" target="23" edge="1">
          <mxGeometry relative="1" as="geometry">
            <Array as="points">
              <mxPoint x="1050" y="170" />
              <mxPoint x="1050" y="150" />
            </Array>
          </mxGeometry>
        </mxCell>
        <mxCell id="NhdNOb5aXkDNTFYbiQFU-133" value="&lt;p style=&quot;margin: 0px; margin-top: 4px; text-align: center; text-decoration: underline;&quot;&gt;&lt;b&gt;B&amp;amp;C&lt;/b&gt;&lt;/p&gt;&lt;hr&gt;&lt;p style=&quot;margin: 0px; margin-left: 8px;&quot;&gt;IdBanner&lt;/p&gt;&lt;p style=&quot;margin: 0px; margin-left: 8px;&quot;&gt;IdCategory&lt;/p&gt;" style="verticalAlign=top;align=left;overflow=fill;fontSize=12;fontFamily=Helvetica;html=1;strokeColor=#003366;shadow=1;fillColor=#D4E1F5;fontColor=#003366" parent="1" vertex="1">
          <mxGeometry x="1070" y="130" width="90" height="80" as="geometry" />
        </mxCell>
        <mxCell id="mp7Mzo0voSlyfgkGZcpP-88" value="" style="edgeStyle=orthogonalEdgeStyle;rounded=0;orthogonalLoop=1;jettySize=auto;html=1;" parent="1" source="mp7Mzo0voSlyfgkGZcpP-86" target="mp7Mzo0voSlyfgkGZcpP-87" edge="1">
          <mxGeometry relative="1" as="geometry" />
        </mxCell>
        <mxCell id="mp7Mzo0voSlyfgkGZcpP-86" value="&lt;p style=&quot;margin: 0px; margin-top: 4px; text-align: center; text-decoration: underline;&quot;&gt;&lt;b&gt;Application&lt;/b&gt;&lt;/p&gt;" style="verticalAlign=top;align=left;overflow=fill;fontSize=12;fontFamily=Helvetica;html=1;strokeColor=#003366;shadow=1;fillColor=#D4E1F5;fontColor=#003366" parent="1" vertex="1">
          <mxGeometry x="1250" y="610" width="160" height="20" as="geometry" />
        </mxCell>
        <mxCell id="mp7Mzo0voSlyfgkGZcpP-89" value="" style="edgeStyle=orthogonalEdgeStyle;rounded=0;orthogonalLoop=1;jettySize=auto;html=1;" parent="1" source="mp7Mzo0voSlyfgkGZcpP-87" target="22" edge="1">
          <mxGeometry relative="1" as="geometry" />
        </mxCell>
        <mxCell id="mp7Mzo0voSlyfgkGZcpP-91" value="" style="edgeStyle=orthogonalEdgeStyle;rounded=0;orthogonalLoop=1;jettySize=auto;html=1;" parent="1" source="mp7Mzo0voSlyfgkGZcpP-87" target="mp7Mzo0voSlyfgkGZcpP-90" edge="1">
          <mxGeometry relative="1" as="geometry" />
        </mxCell>
        <mxCell id="mp7Mzo0voSlyfgkGZcpP-87" value="&lt;br&gt;&amp;nbsp; &amp;nbsp; &amp;nbsp;&lt;br&gt;&amp;nbsp; &amp;nbsp; &amp;nbsp; &amp;nbsp; authorized?&lt;br&gt;&amp;nbsp; &amp;nbsp;" style="rhombus;whiteSpace=wrap;html=1;align=left;verticalAlign=top;fillColor=#D4E1F5;strokeColor=#003366;fontColor=#003366;shadow=1;" parent="1" vertex="1">
          <mxGeometry x="970" y="580" width="120" height="80" as="geometry" />
        </mxCell>
        <mxCell id="mp7Mzo0voSlyfgkGZcpP-90" value="&lt;p style=&quot;margin: 0px; margin-top: 4px; text-align: center; text-decoration: underline;&quot;&gt;&lt;b&gt;User&lt;/b&gt;&lt;/p&gt;&lt;p style=&quot;margin: 0px; margin-top: 4px; text-align: center; text-decoration: underline;&quot;&gt;&lt;br&gt;&lt;/p&gt;&lt;p style=&quot;margin: 0px; margin-top: 4px; text-align: center; text-decoration: underline;&quot;&gt;Only one public endpoint&lt;/p&gt;&lt;p style=&quot;margin: 0px; margin-top: 4px; text-align: center; text-decoration: underline;&quot;&gt;/bid?cat1=cat1&amp;amp;...&lt;/p&gt;" style="verticalAlign=top;align=left;overflow=fill;fontSize=12;fontFamily=Helvetica;html=1;strokeColor=#003366;shadow=1;fillColor=#D4E1F5;fontColor=#003366" parent="1" vertex="1">
          <mxGeometry x="950" y="760" width="160" height="90" as="geometry" />
        </mxCell>
        <mxCell id="mp7Mzo0voSlyfgkGZcpP-92" value="Yes" style="text;html=1;align=center;verticalAlign=middle;resizable=0;points=[];autosize=1;strokeColor=none;fillColor=none;" parent="1" vertex="1">
          <mxGeometry x="1030" y="540" width="40" height="20" as="geometry" />
        </mxCell>
        <mxCell id="mp7Mzo0voSlyfgkGZcpP-93" value="No" style="text;html=1;align=center;verticalAlign=middle;resizable=0;points=[];autosize=1;strokeColor=none;fillColor=none;" parent="1" vertex="1">
          <mxGeometry x="1040" y="700" width="30" height="20" as="geometry" />
        </mxCell>
        <mxCell id="MwsOupJ-ObkAfCJKb1hH-92" value="" style="edgeStyle=orthogonalEdgeStyle;rounded=0;orthogonalLoop=1;jettySize=auto;html=1;" edge="1" parent="1" source="MwsOupJ-ObkAfCJKb1hH-86" target="MwsOupJ-ObkAfCJKb1hH-88">
          <mxGeometry relative="1" as="geometry" />
        </mxCell>
        <mxCell id="MwsOupJ-ObkAfCJKb1hH-86" value="query" style="ellipse;whiteSpace=wrap;html=1;" vertex="1" parent="1">
          <mxGeometry x="890" y="930" width="70" height="40" as="geometry" />
        </mxCell>
        <mxCell id="MwsOupJ-ObkAfCJKb1hH-88" value="ViewController" style="ellipse;whiteSpace=wrap;html=1;" vertex="1" parent="1">
          <mxGeometry x="1010" y="920" width="100" height="60" as="geometry" />
        </mxCell>
        <mxCell id="MwsOupJ-ObkAfCJKb1hH-94" value="" style="edgeStyle=orthogonalEdgeStyle;rounded=0;orthogonalLoop=1;jettySize=auto;html=1;" edge="1" parent="1" source="MwsOupJ-ObkAfCJKb1hH-89" target="MwsOupJ-ObkAfCJKb1hH-90">
          <mxGeometry relative="1" as="geometry" />
        </mxCell>
        <mxCell id="MwsOupJ-ObkAfCJKb1hH-89" value="app.js" style="ellipse;whiteSpace=wrap;html=1;" vertex="1" parent="1">
          <mxGeometry x="1200" y="920" width="100" height="60" as="geometry" />
        </mxCell>
        <mxCell id="MwsOupJ-ObkAfCJKb1hH-90" value="Service" style="ellipse;whiteSpace=wrap;html=1;" vertex="1" parent="1">
          <mxGeometry x="1340" y="920" width="100" height="60" as="geometry" />
        </mxCell>
        <mxCell id="MwsOupJ-ObkAfCJKb1hH-91" value="Controller" style="ellipse;whiteSpace=wrap;html=1;" vertex="1" parent="1">
          <mxGeometry x="1530" y="920" width="100" height="60" as="geometry" />
        </mxCell>
        <mxCell id="MwsOupJ-ObkAfCJKb1hH-110" style="edgeStyle=orthogonalEdgeStyle;rounded=0;orthogonalLoop=1;jettySize=auto;html=1;exitX=0;exitY=0.5;exitDx=0;exitDy=0;entryX=0.5;entryY=1;entryDx=0;entryDy=0;" edge="1" parent="1" source="MwsOupJ-ObkAfCJKb1hH-96" target="MwsOupJ-ObkAfCJKb1hH-86">
          <mxGeometry relative="1" as="geometry" />
        </mxCell>
        <mxCell id="MwsOupJ-ObkAfCJKb1hH-96" value="html" style="ellipse;whiteSpace=wrap;html=1;" vertex="1" parent="1">
          <mxGeometry x="1200" y="1050" width="100" height="60" as="geometry" />
        </mxCell>
        <mxCell id="MwsOupJ-ObkAfCJKb1hH-104" value="return" style="html=1;verticalAlign=bottom;endArrow=open;dashed=1;endSize=8;rounded=0;entryX=0.5;entryY=0;entryDx=0;entryDy=0;exitX=0.5;exitY=1;exitDx=0;exitDy=0;" edge="1" parent="1" source="MwsOupJ-ObkAfCJKb1hH-89" target="MwsOupJ-ObkAfCJKb1hH-96">
          <mxGeometry relative="1" as="geometry">
            <mxPoint x="1480" y="820" as="sourcePoint" />
            <mxPoint x="1400" y="820" as="targetPoint" />
          </mxGeometry>
        </mxCell>
        <mxCell id="MwsOupJ-ObkAfCJKb1hH-106" value="query" style="html=1;verticalAlign=bottom;endArrow=block;rounded=0;entryX=0;entryY=0.5;entryDx=0;entryDy=0;" edge="1" parent="1" target="MwsOupJ-ObkAfCJKb1hH-91">
          <mxGeometry width="80" relative="1" as="geometry">
            <mxPoint x="1440" y="950" as="sourcePoint" />
            <mxPoint x="1520.0000000000002" y="949.66" as="targetPoint" />
          </mxGeometry>
        </mxCell>
        <mxCell id="MwsOupJ-ObkAfCJKb1hH-107" value="return" style="html=1;verticalAlign=bottom;endArrow=open;dashed=1;endSize=8;rounded=0;entryX=1;entryY=1;entryDx=0;entryDy=0;" edge="1" parent="1" target="MwsOupJ-ObkAfCJKb1hH-90">
          <mxGeometry relative="1" as="geometry">
            <mxPoint x="1540" y="971" as="sourcePoint" />
            <mxPoint x="1440.0000000000002" y="970" as="targetPoint" />
          </mxGeometry>
        </mxCell>
        <mxCell id="MwsOupJ-ObkAfCJKb1hH-108" value="return" style="html=1;verticalAlign=bottom;endArrow=open;dashed=1;endSize=8;rounded=0;entryX=1;entryY=1;entryDx=0;entryDy=0;exitX=0;exitY=1;exitDx=0;exitDy=0;" edge="1" parent="1" source="MwsOupJ-ObkAfCJKb1hH-90" target="MwsOupJ-ObkAfCJKb1hH-89">
          <mxGeometry relative="1" as="geometry">
            <mxPoint x="1370.0000000000002" y="1000" as="sourcePoint" />
            <mxPoint x="1290.0000000000002" y="1000" as="targetPoint" />
          </mxGeometry>
        </mxCell>
        <mxCell id="MwsOupJ-ObkAfCJKb1hH-109" value="catch" style="html=1;verticalAlign=bottom;startArrow=oval;startFill=1;endArrow=block;startSize=8;rounded=0;exitX=0;exitY=0.5;exitDx=0;exitDy=0;entryX=1;entryY=0.5;entryDx=0;entryDy=0;" edge="1" parent="1" source="MwsOupJ-ObkAfCJKb1hH-89" target="MwsOupJ-ObkAfCJKb1hH-88">
          <mxGeometry width="60" relative="1" as="geometry">
            <mxPoint x="1220" y="920" as="sourcePoint" />
            <mxPoint x="1170" y="950" as="targetPoint" />
          </mxGeometry>
        </mxCell>
      </root>
    </mxGraphModel>
  </diagram>
</mxfile>
